# xmcd
#
# Track frame offsets:
#	187
#	13785
#	26217
#	38600
#	50182
#	60667
#	75287
#	85272
#	98850
#	113070
#	122972
#	133307
#	147792
#	160722
#	172525
#	189315
#	204300
#	219685
#	234425
#	248492
#	263265
#
# Disc length: 3698 seconds
#
# Revision: 1
# Processed by: cddbd v1.5.1PL0 Copyright (c) Steve Scherf et al.
# Submitted via: CDex 1.50Beta5
#
DISCID=0f0e7015
DTITLE=オックス - VINTAGE COLLECTION
DYEAR=1900
DGENRE=Rock
TTITLE0=ガール・フレンド
TTITLE1=花の指環
TTITLE2=待ちくたびれた日曜日
TTITLE3=風の噂
TTITLE4=実らぬ恋
TTITLE5=夜をぶっとばせ
TTITLE6=ダンシング・セブンティーン
TTITLE7=僕のハートをどうぞ
TTITLE8=オー・ビーバー
TTITLE9=涙にくれた瞳
TTITLE10=サイモン・セッズ
TTITLE11=ホリデイ
TTITLE12=スワンの涙
TTITLE13=僕は燃えてる
TTITLE14=ロザリオは永遠に
TTITLE15=真夏のフラメンコ
TTITLE16=神にそむいて
TTITLE17=許してくれ
TTITLE18=僕をあげます
TTITLE19=もうどうにもならない
TTITLE20=恋をするなら
EXTD=
EXTT0=
EXTT1=
EXTT2=
EXTT3=
EXTT4=
EXTT5=
EXTT6=
EXTT7=
EXTT8=
EXTT9=
EXTT10=
EXTT11=
EXTT12=
EXTT13=
EXTT14=
EXTT15=
EXTT16=
EXTT17=
EXTT18=
EXTT19=
EXTT20=
PLAYORDER=
